inDegrees=yes
name=ik_S40_A03_T02
DataType=double
version=3
OpenSimVersion=4.3-2021-08-27-4bc7ad9
endheader
time	pelvis_tilt	pelvis_list	pelvis_rotation	pelvis_tx	pelvis_ty	pelvis_tz	hip_flexion_r	hip_adduction_r	hip_rotation_r	knee_angle_r	knee_angle_r_beta	ankle_angle_r	subtalar_angle_r	mtp_angle_r	hip_flexion_l	hip_adduction_l	hip_rotation_l	knee_angle_l	knee_angle_l_beta	ankle_angle_l	subtalar_angle_l	mtp_angle_l	lumbar_extension	lumbar_bending	lumbar_rotation	arm_flex_r	arm_add_r	arm_rot_r	elbow_flex_r	pro_sup_r	wrist_flex_r	wrist_dev_r	arm_flex_l	arm_add_l	arm_rot_l	elbow_flex_l	pro_sup_l	wrist_flex_l	wrist_dev_l
0	0	0	0	0	0.9399999999999999	0	0	0	0	0	0	0	0	0	0	0	0	0	0	0	0	0	0	0	0	0	0	0	0	89.99999999963507	0	0	0	0	0	0	89.99999999869995	0	0
0.02	-0.9284819213731894	2.798904847635062	-79.39275596948913	0	0.9399999999999999	0	0.8681756557196164	-3.995671765060594	-6.379661146167962	-2.101765701832432	-0.03668273160246537	0	0	0	2.545623507438001	-3.676928376091751	-4.090685617789585	-0.9310900167080066	-0.01625058642400373	0	0	0	0	0	0	1.737832838016276	-1.737832838016276	0.3092413404242721	8.581848051676305	89.69075867737807	0	0	1.737832838016276	-1.737832838016276	0.3092413404242721	8.581848051676305	89.69075867650098	0	0
0.04	-0.9631747110690008	2.81834262313457	-79.50475260294716	0	0.9399999999999999	0	0.9156320892611257	-3.964827322973771	-6.246002276000065	-2.142692696041895	-0.03739704240436513	0	0	0	2.533686866149215	-3.708630611360438	-4.135650994749143	-1.019838703549212	-0.01779954321620413	0	0	0	0	0	0	2.515583160833798	-2.515583160833797	0.4518656427564015	11.73208039014497	89.5481343834212	0	0	2.515583160833798	-2.515583160833797	0.4518656427564015	11.73208039014497	89.54813438257085	0	0
0.06	-0.9848153429675104	2.874985512093171	-79.55488317893207	0	0.9399999999999999	0	1.038582175716722	-3.976196996849587	-6.242936385320932	-2.038080001693836	-0.03557120644860905	0	0	0	2.592806257857741	-3.799045089876107	-4.143006506162556	-0.9760083761997751	-0.01703455969172954	0	0	0	0	0	0	3.162626337997416	-3.162626337997415	0.5696371785196667	13.93789221321352	89.43036285456236	0	0	3.162626337997416	-3.162626337997415	0.5696371785196667	13.93789221321352	89.43036285373407	0	0
0.08	-1.003200593589089	2.91853184174897	-79.60297529872594	0	0.9399999999999999	0	1.130467962177115	-3.962690456662428	-6.226268427193173	-1.991039827823887	-0.03475020053386783	0	0	0	2.649800213147436	-3.806325084314278	-4.198432197036531	-0.9538310430731187	-0.01664749220935777	0	0	0	0	0	0	3.778991741445751	-3.778991741445751	0.680960295871085	15.99962343810697	89.31903974372675	0	0	3.778991741445751	-3.778991741445751	0.680960295871085	15.99962343810697	89.3190397429193	0	0
0.1	-1.017288124197535	2.95424213399823	-79.62605040354106	0	0.9399999999999999	0	1.214930283476254	-3.954226578837629	-6.207576188707901	-1.933597411783273	-0.03374764124365871	0	0	0	2.647207447492287	-3.883068918883115	-4.202611485745164	-1.014308920032167	-0.01770303028690919	0	0	0	0	0	0	4.338532151254499	-4.338532151254499	0.7810460938389194	17.78804179731003	89.21895395160432	0	0	4.338532151254499	-4.338532151254499	0.7810460938389194	17.78804179731003	89.21895395081563	0	0
0.12	-1.045086115060917	3.02221851490673	-79.66641421851071	0	0.9399999999999999	0	1.390880512482751	-3.935224337227848	-6.171105905162316	-1.662044150514927	-0.02900814273999769	0	0	0	2.784383868792482	-3.907396052155002	-4.240520450946177	-0.7714795594193015	-0.01346485842370204	0	0	0	0	0	0	4.462052434688021	-4.462052434688021	0.8034309856449621	18.23397012103115	89.19656906111058	0	0	4.462052434688021	-4.462052434688021	0.8034309856449621	18.23397012103115	89.19656906032606	0	0
0.14	-1.04473196478795	3.010328103845553	-79.71096270025433	0	0.9399999999999999	0	1.385071733556007	-3.914685379266253	-6.100857183364974	-1.792395922872334	-0.03128321035344456	0	0	0	2.708327946302279	-3.92306740821539	-4.25758383351699	-1.018034586451533	-0.01776805543275811	0	0	0	0	0	0	4.839527278631761	-4.839527278631761	0.8713250734195479	19.47495166530144	89.12867497730781	0	0	4.839527278631761	-4.839527278631761	0.8713250734195479	19.47495166530144	89.12867497653615	0	0
0.16	-1.049982256767362	3.015173089870522	-79.72578487940422	0	0.9399999999999999	0	1.413229862783383	-3.900706919121823	-6.087419272927392	-1.810670703330122	-0.03160216544251208	0	0	0	2.702800674144281	-3.925230468333456	-4.26800944994575	-1.046760308517484	-0.01826941386282173	0	0	0	0	0	0	4.918455036734006	-4.918455036734006	0.8854217919755693	19.72935224031713	89.11457825957525	0	0	4.918455036734006	-4.918455036734006	0.8854217919755693	19.72935224031713	89.1145782588062	0	0
0.18	-1.056631633693673	3.052994717154012	-79.75603112777372	0	0.9399999999999999	0	1.516375715505244	-3.874716746953789	-6.018075166866887	-1.665313323367152	-0.02906520057008583	0	0	0	2.749505824339489	-3.939345254001952	-4.323180264406357	-1.01615064285512	-0.01773517441407883	0	0	0	0	0	0	5.012833994826665	-5.012833994826664	0.9025181829822376	20.08031762085187	89.09748186957087	0	0	5.012833994826665	-5.012833994826664	0.9025181829822376	20.08031762085187	89.09748186880506	0	0
0.2	-1.046886632155082	3.077223733601918	-79.76600804180406	0	0.9399999999999999	0	1.596238585731663	-3.888729439704702	-5.973941021565119	-1.558556570542448	-0.02720194373455698	0	0	0	2.768048855860802	-3.946744493791725	-4.241272975220245	-1.045865947969836	-0.01825380432656534	0	0	0	0	0	0	5.517205848813614	-5.517205848813613	0.9912267068747178	21.64875085998593	89.00877335084076	0	0	5.517205848813614	-5.517205848813613	0.9912267068747178	21.64875085998593	89.00877335009156	0	0
0.22	-1.040948732924605	3.085086268967594	-79.77671110160483	0	0.9399999999999999	0	1.65389335267631	-3.865941362218538	-5.930640035432697	-1.517240451685693	-0.02648084142636128	0	0	0	2.784632028457748	-3.951107186036625	-4.22840052171221	-1.014994236630429	-0.01771499131796742	0	0	0	0	0	0	5.603098177796876	-5.603098177796875	1.006350417109829	21.91699431097259	88.99364964148621	0	0	5.603098177796876	-5.603098177796875	1.006350417109829	21.91699431097259	88.99364964073983	0	0
0.24	-1.054020919036572	3.101933141059331	-79.78843318048118	0	0.9399999999999999	0	1.740038575736562	-3.839796580714047	-5.861203325758411	-1.414048077225732	-0.02467979472908406	0	0	0	2.787435629037254	-4.003403561759727	-4.208595320780358	-1.049546619942696	-0.01831804417117763	0	0	0	0	0	0	6.077606823883839	-6.077606823883838	1.089233796839268	23.37157499882855	88.91076626657328	0	0	6.077606823883839	-6.077606823883838	1.089233796839268	23.37157499882855	88.91076626584245	0	0
0.26	-1.057358553036227	3.153493547122229	-79.79142486285366	0	0.9399999999999999	0	1.854590387098292	-3.80456142112571	-5.761825229846414	-1.355182355079148	-0.02365239406106204	0	0	0	2.833166268625656	-4.040086766514198	-4.224484128578148	-1.041333853969542	-0.01817470436425034	0	0	0	0	0	0	6.192748371609613	-6.192748371609612	1.109238079990027	23.71143021824886	88.89076198458362	0	0	6.192748371609613	-6.192748371609612	1.109238079990027	23.71143021824886	88.89076198385654	0	0
0.28	-1.038335907197961	3.138381149311773	-79.76887976414255	0	0.9399999999999999	0	1.944453683041377	-3.776456954306822	-5.699352518681706	-1.332256082899849	-0.02325225512632489	0	0	0	2.790181150701616	-4.091786470310097	-4.242648475094264	-1.045938774762365	-0.01825507539387864	0	0	0	0	0	0	6.193944647007011	-6.19394464700701	1.109458624764412	23.71726302083711	88.89054143982226	0	0	6.193944647007011	-6.19394464700701	1.109458624764412	23.71726302083711	88.89054143909519	0	0
0.3	-1.111799449832644	3.334176328108818	-79.83524338266766	0	0.9399999999999999	0	2.314652838090317	-3.653934995003807	-5.4821540462123	-1.160074926775189	-0.02024712704205918	1.616420763446103e-35	0	0	2.941973665158567	-4.226488384513433	-4.372007866084323	-1.107840858401348	-0.0193354705672238	1.616420763446103e-35	0	0	0	0	0	6.197471349277146	-6.197471349277145	1.110111435039089	23.73466208411331	88.88988862958608	0	0	6.197471349277146	-6.197471349277145	1.110111435039089	23.73466208411331	88.8898886288592	0	0
0.32	-1.153582450005735	3.442686087426983	-79.91511810094356	0	0.9399999999999999	0	2.696961543629409	-3.546760532078083	-5.228606465514118	-0.6872627410322443	-0.01199499765729379	0	0	0	2.873706557534585	-4.400252090258003	-4.393213049373441	-1.266389443528845	-0.02210266540207715	0	0	0	0	0	0	6.205006661142475	-6.205006661142474	1.111505078586737	23.7717389992421	88.88849498612063	0	0	6.205006661142475	-6.205006661142474	1.111505078586737	23.7717389992421	88.88849498539398	0	0
0.34	-1.232285585438659	3.576362057254154	-80.03317180682471	0	0.9399999999999999	0	3.083590113531893	-3.390676065484472	-4.977027067316416	-0.3666984053375671	-0.006400094534953295	0	0	0	3.042379240691743	-4.490030833475987	-4.430673175952162	-1.270688199180886	-0.02217769284194398	0	0	0	0	0	0	6.21092682027003	-6.21092682027003	1.112586912928061	23.79982398126554	88.88741315184299	0	0	6.21092682027003	-6.21092682027003	1.112586912928061	23.79982398126554	88.88741315111659	0	0
0.36	-1.259093103338554	3.626656741033073	-80.11180287926113	0	0.9399999999999999	0	3.318777757033695	-3.298071870482173	-4.869908833142126	-0.1950955869333884	-0.003405060348098455	0	0	0	3.051996737523202	-4.531488792067238	-4.297302386440758	-1.349603225461437	-0.02355501987983745	0	0	0	0	0	0	6.213796395613406	-6.213796395613405	1.113117099311789	23.81388155519243	88.88688296549053	0	0	6.213796395613406	-6.213796395613405	1.113117099311789	23.81388155519243	88.88688296476424	0	0
0.3800000000000001	-1.33225478038477	3.747161749453475	-80.27909318769179	0	0.9399999999999999	0	3.646025986276344	-3.120118894954233	-4.844618730134473	0.2993319694222374	0.005224328422897031	0	0	0	3.09756372685633	-4.638151293128825	-4.256525404240819	-1.535842274038074	-0.02680550447328141	0	0	0	0	0	0	6.22089430817739	-6.220894308177389	1.114434236582467	23.84907481926465	88.88556582829759	0	0	6.22089430817739	-6.220894308177389	1.114434236582467	23.84907481926465	88.88556582757153	0	0
0.4000000000000001	-1.396648598988887	3.853436510144516	-80.42190995206877	0	0.9399999999999999	0	3.837323750755585	-2.916385619519901	-5.01157289207445	0.5323182484266956	0.009290706103494964	0	0	0	3.168481079343375	-4.755934579988044	-4.372287426833255	-1.571065591866295	-0.0274202673428603	0	0	0	0	0	0	6.226500721178494	-6.226500721178493	1.115474372012423	23.87684041860326	88.88452569292903	0	0	6.226500721178494	-6.226500721178493	1.115474372012423	23.87684041860326	88.88452569220311	0	0
0.4200000000000001	-1.390514447321389	3.976928499740592	-80.50996433920102	0	0.9399999999999999	0	3.979305751715162	-2.825499561443479	-5.302796501760121	0.7533709323043993	0.01314880325753108	0	0	0	3.257107761142671	-4.802498442000416	-4.493863596502281	-1.624983454771013	-0.02836131157618653	0	0	0	0	0	0	6.233961107167935	-6.233961107167934	1.116859034376981	23.91380651028019	88.88314103064617	0	0	6.233961107167935	-6.233961107167934	1.116859034376981	23.91380651028019	88.88314102992055	0	0
0.4400000000000001	-1.37630742562514	4.10652933301161	-80.56659340483075	0	0.9399999999999999	0	4.112912730075927	-2.804751245229423	-5.224041326825079	0.8019595214862155	0.01399683411765267	0	0	0	3.345965680071146	-4.874212301858274	-4.447916245472449	-1.68852807872734	-0.0294703744861661	0	0	0	0	0	0	6.237422219621594	-6.237422219621594	1.117498315704575	23.93070512076241	88.88250174935629	0	0	6.237422219621594	-6.237422219621594	1.117498315704575	23.93070512076241	88.88250174863083	0	0
